<svg xmlns="http://www.w3.org/2000/svg" viewBox="0 0 640 400" width="640" height="400" role="img" aria-label="BDD Steam Docker">
<defs>
<linearGradient id="sky" x1="0" y1="0" x2="0" y2="1">
<stop offset="0" stop-color="#101026"/><stop offset="1" stop-color="#06060f"/>
</linearGradient>
<radialGradient id="halo" cx="50%" cy="44%" r="62%">
<stop offset="0" stop-color="#94a3b8" stop-opacity=".26"/>
<stop offset="1" stop-color="#94a3b8" stop-opacity="0"/>
</radialGradient>
<pattern id="grid" width="32" height="32" patternUnits="userSpaceOnUse">
<path d="M32 0H0V32" fill="none" stroke="#ffffff" stroke-opacity=".05" stroke-width="1"/>
</pattern>
<filter id="glow" x="-40%" y="-40%" width="180%" height="180%">
<feGaussianBlur stdDeviation="7" result="b"/>
<feMerge><feMergeNode in="b"/><feMergeNode in="SourceGraphic"/></feMerge>
</filter>
</defs>
<rect width="640" height="400" fill="url(#sky)"/>
<rect width="640" height="400" fill="url(#grid)"/>
<circle cx="566.7" cy="216.4" r="0.7" fill="#fff" opacity="0.24"/><circle cx="410.6" cy="345.4" r="1.4" fill="#fff" opacity="0.49"/><circle cx="324.1" cy="67.6" r="1.1" fill="#fff" opacity="0.24"/><circle cx="30.1" cy="281.0" r="1.1" fill="#fff" opacity="0.41"/><circle cx="192.2" cy="53.3" r="1.4" fill="#fff" opacity="0.36"/><circle cx="295.6" cy="292.3" r="1.4" fill="#fff" opacity="0.21"/><circle cx="279.6" cy="169.5" r="0.7" fill="#fff" opacity="0.32"/><circle cx="476.0" cy="326.0" r="0.7" fill="#fff" opacity="0.23"/><circle cx="150.6" cy="301.0" r="1.1" fill="#fff" opacity="0.58"/><circle cx="394.0" cy="148.0" r="0.9" fill="#fff" opacity="0.27"/><circle cx="512.2" cy="221.4" r="1.4" fill="#fff" opacity="0.32"/><circle cx="536.7" cy="276.2" r="0.7" fill="#fff" opacity="0.52"/><circle cx="530.2" cy="166.3" r="1.1" fill="#fff" opacity="0.48"/><circle cx="299.3" cy="45.8" r="1.1" fill="#fff" opacity="0.22"/><circle cx="588.2" cy="138.8" r="1.1" fill="#fff" opacity="0.30"/><circle cx="52.6" cy="323.5" r="1.4" fill="#fff" opacity="0.51"/><circle cx="525.5" cy="166.6" r="1.1" fill="#fff" opacity="0.23"/><circle cx="272.3" cy="29.8" r="1.1" fill="#fff" opacity="0.28"/><circle cx="124.5" cy="257.5" r="0.9" fill="#fff" opacity="0.56"/><circle cx="245.5" cy="243.5" r="1.4" fill="#fff" opacity="0.33"/><circle cx="539.9" cy="136.5" r="0.9" fill="#fff" opacity="0.46"/><circle cx="144.9" cy="187.9" r="1.4" fill="#fff" opacity="0.43"/><circle cx="216.5" cy="250.4" r="1.4" fill="#fff" opacity="0.29"/><circle cx="209.3" cy="203.9" r="1.1" fill="#fff" opacity="0.42"/><circle cx="535.6" cy="212.4" r="0.7" fill="#fff" opacity="0.55"/><circle cx="477.1" cy="293.0" r="1.4" fill="#fff" opacity="0.36"/><circle cx="318.5" cy="305.1" r="1.1" fill="#fff" opacity="0.39"/><circle cx="84.2" cy="303.4" r="1.4" fill="#fff" opacity="0.57"/><circle cx="119.2" cy="194.3" r="1.1" fill="#fff" opacity="0.27"/><circle cx="489.2" cy="168.0" r="1.4" fill="#fff" opacity="0.50"/><circle cx="174.9" cy="58.2" r="0.9" fill="#fff" opacity="0.52"/><circle cx="497.0" cy="275.6" r="1.4" fill="#fff" opacity="0.52"/><circle cx="287.2" cy="82.9" r="0.9" fill="#fff" opacity="0.38"/><circle cx="582.4" cy="210.0" r="0.7" fill="#fff" opacity="0.58"/><circle cx="132.1" cy="50.0" r="0.7" fill="#fff" opacity="0.44"/><circle cx="19.1" cy="8.5" r="1.1" fill="#fff" opacity="0.60"/><circle cx="526.8" cy="90.5" r="1.1" fill="#fff" opacity="0.36"/><circle cx="450.2" cy="205.9" r="0.7" fill="#fff" opacity="0.41"/><circle cx="191.3" cy="146.0" r="0.7" fill="#fff" opacity="0.39"/><circle cx="399.1" cy="171.5" r="1.1" fill="#fff" opacity="0.45"/><circle cx="38.9" cy="330.9" r="0.9" fill="#fff" opacity="0.51"/><circle cx="104.2" cy="283.5" r="1.1" fill="#fff" opacity="0.55"/>
<rect width="640" height="400" fill="url(#halo)"/>
<path d="M-40 366 Q320 296 680 366" fill="none" stroke="#94a3b8" stroke-opacity=".34" stroke-width="1.5"/>
<path d="M-40 384 Q320 320 680 384" fill="none" stroke="#94a3b8" stroke-opacity=".16" stroke-width="1"/>
<g filter="url(#glow)" opacity=".95">
<g fill="none" stroke="#94a3b8" stroke-width="2.6" stroke-linecap="round" stroke-linejoin="round"><ellipse cx="320" cy="130" rx="84" ry="26" stroke-opacity=".55"/><path d="M236 130v44q0 26 84 26t84-26v-44" stroke-opacity=".55"/><ellipse cx="320" cy="200" rx="84" ry="26" stroke-opacity=".75"/><path d="M236 200v44q0 26 84 26t84-26v-44" stroke-opacity=".75"/><ellipse cx="320" cy="270" rx="84" ry="26" stroke-opacity="1"/><path d="M236 270v44q0 26 84 26t84-26v-44" stroke-opacity="1"/></g>
</g>
<g stroke="#94a3b8" stroke-opacity=".5" stroke-width="2" fill="none" stroke-linecap="square">
<path d="M18 40V18h22"/><path d="M600 18h22v22"/>
<path d="M622 360v22h-22"/><path d="M40 382H18v-22"/>
</g>
</svg>