<svg xmlns="http://www.w3.org/2000/svg" viewBox="0 0 640 400" width="640" height="400" role="img" aria-label="UnderGears — Sous les Rouages">
<defs>
<linearGradient id="sky" x1="0" y1="0" x2="0" y2="1">
<stop offset="0" stop-color="#101026"/><stop offset="1" stop-color="#06060f"/>
</linearGradient>
<radialGradient id="halo" cx="50%" cy="44%" r="62%">
<stop offset="0" stop-color="#3dff85" stop-opacity=".26"/>
<stop offset="1" stop-color="#3dff85" stop-opacity="0"/>
</radialGradient>
<pattern id="grid" width="32" height="32" patternUnits="userSpaceOnUse">
<path d="M32 0H0V32" fill="none" stroke="#ffffff" stroke-opacity=".05" stroke-width="1"/>
</pattern>
<filter id="glow" x="-40%" y="-40%" width="180%" height="180%">
<feGaussianBlur stdDeviation="7" result="b"/>
<feMerge><feMergeNode in="b"/><feMergeNode in="SourceGraphic"/></feMerge>
</filter>
</defs>
<rect width="640" height="400" fill="url(#sky)"/>
<rect width="640" height="400" fill="url(#grid)"/>
<circle cx="516.5" cy="20.3" r="1.1" fill="#fff" opacity="0.53"/><circle cx="486.7" cy="295.7" r="0.7" fill="#fff" opacity="0.41"/><circle cx="595.8" cy="346.7" r="1.1" fill="#fff" opacity="0.52"/><circle cx="532.8" cy="231.0" r="1.4" fill="#fff" opacity="0.45"/><circle cx="578.0" cy="185.1" r="0.7" fill="#fff" opacity="0.41"/><circle cx="74.7" cy="49.0" r="0.9" fill="#fff" opacity="0.52"/><circle cx="508.2" cy="107.5" r="0.9" fill="#fff" opacity="0.53"/><circle cx="506.1" cy="23.7" r="0.9" fill="#fff" opacity="0.54"/><circle cx="491.4" cy="123.1" r="1.4" fill="#fff" opacity="0.50"/><circle cx="45.2" cy="202.4" r="0.9" fill="#fff" opacity="0.61"/><circle cx="38.4" cy="116.0" r="0.9" fill="#fff" opacity="0.30"/><circle cx="588.1" cy="268.9" r="0.7" fill="#fff" opacity="0.46"/><circle cx="94.0" cy="281.1" r="1.4" fill="#fff" opacity="0.33"/><circle cx="267.1" cy="244.5" r="0.9" fill="#fff" opacity="0.44"/><circle cx="81.3" cy="40.1" r="0.7" fill="#fff" opacity="0.24"/><circle cx="572.6" cy="345.6" r="0.7" fill="#fff" opacity="0.21"/><circle cx="428.2" cy="228.4" r="1.4" fill="#fff" opacity="0.31"/><circle cx="112.2" cy="213.4" r="1.1" fill="#fff" opacity="0.22"/><circle cx="558.5" cy="328.7" r="1.4" fill="#fff" opacity="0.40"/><circle cx="345.6" cy="250.2" r="0.7" fill="#fff" opacity="0.48"/><circle cx="425.3" cy="338.9" r="0.9" fill="#fff" opacity="0.58"/><circle cx="137.4" cy="225.0" r="0.7" fill="#fff" opacity="0.54"/><circle cx="121.8" cy="147.1" r="0.9" fill="#fff" opacity="0.52"/><circle cx="371.1" cy="331.3" r="1.4" fill="#fff" opacity="0.35"/><circle cx="133.3" cy="128.5" r="1.1" fill="#fff" opacity="0.26"/><circle cx="238.7" cy="35.3" r="1.1" fill="#fff" opacity="0.29"/><circle cx="227.0" cy="293.2" r="1.1" fill="#fff" opacity="0.19"/><circle cx="513.4" cy="183.7" r="0.7" fill="#fff" opacity="0.43"/><circle cx="232.3" cy="46.0" r="1.4" fill="#fff" opacity="0.28"/><circle cx="11.5" cy="314.9" r="0.9" fill="#fff" opacity="0.23"/><circle cx="498.0" cy="196.6" r="0.7" fill="#fff" opacity="0.56"/><circle cx="242.7" cy="120.9" r="1.1" fill="#fff" opacity="0.27"/><circle cx="614.7" cy="216.9" r="1.4" fill="#fff" opacity="0.59"/><circle cx="115.5" cy="256.7" r="0.9" fill="#fff" opacity="0.40"/><circle cx="142.6" cy="140.0" r="1.1" fill="#fff" opacity="0.45"/><circle cx="65.4" cy="195.8" r="0.7" fill="#fff" opacity="0.22"/><circle cx="510.4" cy="347.1" r="0.7" fill="#fff" opacity="0.34"/><circle cx="489.3" cy="302.5" r="0.7" fill="#fff" opacity="0.38"/><circle cx="557.7" cy="102.9" r="1.4" fill="#fff" opacity="0.42"/><circle cx="114.1" cy="330.4" r="0.7" fill="#fff" opacity="0.40"/><circle cx="441.1" cy="230.1" r="0.7" fill="#fff" opacity="0.55"/><circle cx="58.5" cy="145.5" r="0.9" fill="#fff" opacity="0.52"/>
<rect width="640" height="400" fill="url(#halo)"/>
<path d="M-40 366 Q320 296 680 366" fill="none" stroke="#3dff85" stroke-opacity=".34" stroke-width="1.5"/>
<path d="M-40 384 Q320 320 680 384" fill="none" stroke="#3dff85" stroke-opacity=".16" stroke-width="1"/>
<g filter="url(#glow)" opacity=".95">
<g fill="none" stroke="#3dff85" stroke-width="2.6" stroke-linecap="round" stroke-linejoin="round"><path d="M232 86v228" stroke-opacity=".22"/><path d="M408 86v228" stroke-opacity=".22"/><line x1="306.0" y1="152.0" x2="319.0" y2="152.0"/><line x1="296.8" y1="180.2" x2="307.4" y2="187.9"/><line x1="272.8" y1="197.7" x2="276.9" y2="210.0"/><line x1="243.2" y1="197.7" x2="239.1" y2="210.0"/><line x1="219.2" y1="180.2" x2="208.6" y2="187.9"/><line x1="210.0" y1="152.0" x2="197.0" y2="152.0"/><line x1="219.2" y1="123.8" x2="208.6" y2="116.1"/><line x1="243.2" y1="106.3" x2="239.1" y2="94.0"/><line x1="272.8" y1="106.3" x2="276.9" y2="94.0"/><line x1="296.8" y1="123.8" x2="307.4" y2="116.1"/><circle cx="258" cy="152" r="48"/><circle cx="258" cy="152" r="18" stroke-opacity=".55"/><line x1="446.0" y1="232.0" x2="459.0" y2="232.0"/><line x1="437.7" y1="263.0" x2="449.0" y2="269.5"/><line x1="415.0" y1="285.7" x2="421.5" y2="297.0"/><line x1="384.0" y1="294.0" x2="384.0" y2="307.0"/><line x1="353.0" y1="285.7" x2="346.5" y2="297.0"/><line x1="330.3" y1="263.0" x2="319.0" y2="269.5"/><line x1="322.0" y1="232.0" x2="309.0" y2="232.0"/><line x1="330.3" y1="201.0" x2="319.0" y2="194.5"/><line x1="353.0" y1="178.3" x2="346.5" y2="167.0"/><line x1="384.0" y1="170.0" x2="384.0" y2="157.0"/><line x1="415.0" y1="178.3" x2="421.5" y2="167.0"/><line x1="437.7" y1="201.0" x2="449.0" y2="194.5"/><circle cx="384" cy="232" r="62"/><circle cx="384" cy="232" r="24" stroke-opacity=".55"/></g>
</g>
<g stroke="#3dff85" stroke-opacity=".5" stroke-width="2" fill="none" stroke-linecap="square">
<path d="M18 40V18h22"/><path d="M600 18h22v22"/>
<path d="M622 360v22h-22"/><path d="M40 382H18v-22"/>
</g>
</svg>