<svg xmlns="http://www.w3.org/2000/svg" viewBox="0 0 640 400" width="640" height="400" role="img" aria-label="Systeme solaire en hand tracking">
<defs>
<linearGradient id="sky" x1="0" y1="0" x2="0" y2="1">
<stop offset="0" stop-color="#101026"/><stop offset="1" stop-color="#06060f"/>
</linearGradient>
<radialGradient id="halo" cx="50%" cy="44%" r="62%">
<stop offset="0" stop-color="#06b6d4" stop-opacity=".26"/>
<stop offset="1" stop-color="#06b6d4" stop-opacity="0"/>
</radialGradient>
<pattern id="grid" width="32" height="32" patternUnits="userSpaceOnUse">
<path d="M32 0H0V32" fill="none" stroke="#ffffff" stroke-opacity=".05" stroke-width="1"/>
</pattern>
<filter id="glow" x="-40%" y="-40%" width="180%" height="180%">
<feGaussianBlur stdDeviation="7" result="b"/>
<feMerge><feMergeNode in="b"/><feMergeNode in="SourceGraphic"/></feMerge>
</filter>
</defs>
<rect width="640" height="400" fill="url(#sky)"/>
<rect width="640" height="400" fill="url(#grid)"/>
<circle cx="30.0" cy="187.8" r="0.9" fill="#fff" opacity="0.50"/><circle cx="375.6" cy="347.0" r="0.7" fill="#fff" opacity="0.31"/><circle cx="627.5" cy="31.5" r="0.9" fill="#fff" opacity="0.46"/><circle cx="301.8" cy="32.1" r="0.9" fill="#fff" opacity="0.41"/><circle cx="369.8" cy="319.7" r="0.7" fill="#fff" opacity="0.29"/><circle cx="572.6" cy="128.9" r="0.9" fill="#fff" opacity="0.52"/><circle cx="23.0" cy="359.6" r="1.1" fill="#fff" opacity="0.56"/><circle cx="419.5" cy="310.1" r="1.1" fill="#fff" opacity="0.32"/><circle cx="441.6" cy="104.2" r="1.1" fill="#fff" opacity="0.53"/><circle cx="136.7" cy="240.4" r="0.7" fill="#fff" opacity="0.35"/><circle cx="571.9" cy="112.5" r="0.9" fill="#fff" opacity="0.54"/><circle cx="409.9" cy="108.8" r="0.7" fill="#fff" opacity="0.60"/><circle cx="23.0" cy="299.7" r="0.7" fill="#fff" opacity="0.55"/><circle cx="569.5" cy="254.9" r="0.7" fill="#fff" opacity="0.47"/><circle cx="612.4" cy="218.1" r="0.7" fill="#fff" opacity="0.20"/><circle cx="440.6" cy="267.2" r="1.4" fill="#fff" opacity="0.51"/><circle cx="585.3" cy="333.9" r="1.4" fill="#fff" opacity="0.43"/><circle cx="585.3" cy="60.1" r="1.1" fill="#fff" opacity="0.39"/><circle cx="360.0" cy="208.7" r="0.9" fill="#fff" opacity="0.23"/><circle cx="124.3" cy="68.0" r="0.7" fill="#fff" opacity="0.30"/><circle cx="251.5" cy="48.1" r="0.7" fill="#fff" opacity="0.38"/><circle cx="557.3" cy="66.8" r="1.4" fill="#fff" opacity="0.28"/><circle cx="124.0" cy="235.2" r="1.1" fill="#fff" opacity="0.54"/><circle cx="151.7" cy="72.5" r="0.9" fill="#fff" opacity="0.26"/><circle cx="359.2" cy="121.6" r="0.9" fill="#fff" opacity="0.31"/><circle cx="366.4" cy="330.5" r="0.9" fill="#fff" opacity="0.56"/><circle cx="315.5" cy="25.8" r="1.1" fill="#fff" opacity="0.36"/><circle cx="211.3" cy="120.4" r="0.9" fill="#fff" opacity="0.19"/><circle cx="613.2" cy="76.8" r="1.1" fill="#fff" opacity="0.56"/><circle cx="353.8" cy="349.7" r="0.7" fill="#fff" opacity="0.47"/><circle cx="533.0" cy="163.5" r="0.9" fill="#fff" opacity="0.49"/><circle cx="345.6" cy="14.0" r="0.7" fill="#fff" opacity="0.54"/><circle cx="250.4" cy="170.7" r="0.9" fill="#fff" opacity="0.55"/><circle cx="356.2" cy="355.5" r="0.7" fill="#fff" opacity="0.52"/><circle cx="109.1" cy="103.4" r="0.7" fill="#fff" opacity="0.25"/><circle cx="218.5" cy="357.1" r="1.4" fill="#fff" opacity="0.40"/><circle cx="517.6" cy="43.9" r="1.4" fill="#fff" opacity="0.59"/><circle cx="294.3" cy="60.6" r="1.4" fill="#fff" opacity="0.34"/><circle cx="618.3" cy="27.2" r="1.1" fill="#fff" opacity="0.19"/><circle cx="25.1" cy="336.3" r="0.9" fill="#fff" opacity="0.21"/><circle cx="463.5" cy="228.8" r="1.4" fill="#fff" opacity="0.40"/><circle cx="371.4" cy="306.0" r="0.9" fill="#fff" opacity="0.50"/>
<rect width="640" height="400" fill="url(#halo)"/>
<path d="M-40 366 Q320 296 680 366" fill="none" stroke="#06b6d4" stroke-opacity=".34" stroke-width="1.5"/>
<path d="M-40 384 Q320 320 680 384" fill="none" stroke="#06b6d4" stroke-opacity=".16" stroke-width="1"/>
<g filter="url(#glow)" opacity=".95">
<g fill="none" stroke="#06b6d4" stroke-width="2.6" stroke-linecap="round" stroke-linejoin="round"><ellipse cx="404" cy="168" rx="126" ry="46" stroke-opacity=".45" transform="rotate(-18 404 168)"/><circle cx="404" cy="168" r="26"/><circle cx="516" cy="140" r="9" stroke-opacity=".8"/><path d="M150 292V196a13 13 0 0126 0v52"/><path d="M176 240v-74a13 13 0 0126 0v70"/><path d="M202 236v-64a13 13 0 0126 0v66"/><path d="M228 240v-46a13 13 0 0126 0v58"/><path d="M150 254l-22 22a16 16 0 000 24l34 34h66a30 30 0 0026-30"/></g>
</g>
<g stroke="#06b6d4" stroke-opacity=".5" stroke-width="2" fill="none" stroke-linecap="square">
<path d="M18 40V18h22"/><path d="M600 18h22v22"/>
<path d="M622 360v22h-22"/><path d="M40 382H18v-22"/>
</g>
</svg>